<mxfile host="Electron" agent="Mozilla/5.0 (Windows NT 10.0; Win64; x64) AppleWebKit/537.36 (KHTML, like Gecko) draw.io/24.7.8 Chrome/128.0.6613.36 Electron/32.0.1 Safari/537.36" version="24.7.8">
  <diagram name="Страница — 1" id="0-tFpa0ZT3le73UlEQtC">
    <mxGraphModel dx="1720" dy="956" grid="1" gridSize="10" guides="1" tooltips="1" connect="1" arrows="1" fold="1" page="1" pageScale="1" pageWidth="827" pageHeight="1169" math="0" shadow="0">
      <root>
        <mxCell id="0" />
        <mxCell id="1" parent="0" />
        <mxCell id="vEnnmk01EU4P09wJa9QG-12" style="edgeStyle=orthogonalEdgeStyle;rounded=0;orthogonalLoop=1;jettySize=auto;html=1;exitX=0;exitY=1;exitDx=0;exitDy=0;entryX=0;entryY=0.5;entryDx=0;entryDy=0;" edge="1" parent="1" source="vEnnmk01EU4P09wJa9QG-1" target="vEnnmk01EU4P09wJa9QG-2">
          <mxGeometry relative="1" as="geometry" />
        </mxCell>
        <mxCell id="vEnnmk01EU4P09wJa9QG-13" style="edgeStyle=orthogonalEdgeStyle;rounded=0;orthogonalLoop=1;jettySize=auto;html=1;exitX=0;exitY=1;exitDx=0;exitDy=0;entryX=0;entryY=0.5;entryDx=0;entryDy=0;" edge="1" parent="1" source="vEnnmk01EU4P09wJa9QG-1" target="vEnnmk01EU4P09wJa9QG-5">
          <mxGeometry relative="1" as="geometry">
            <Array as="points">
              <mxPoint x="340" y="290" />
              <mxPoint x="320" y="290" />
              <mxPoint x="320" y="370" />
            </Array>
          </mxGeometry>
        </mxCell>
        <mxCell id="vEnnmk01EU4P09wJa9QG-14" style="edgeStyle=orthogonalEdgeStyle;rounded=0;orthogonalLoop=1;jettySize=auto;html=1;exitX=0;exitY=1;exitDx=0;exitDy=0;entryX=0;entryY=0.5;entryDx=0;entryDy=0;" edge="1" parent="1" source="vEnnmk01EU4P09wJa9QG-1" target="vEnnmk01EU4P09wJa9QG-6">
          <mxGeometry relative="1" as="geometry">
            <Array as="points">
              <mxPoint x="340" y="290" />
              <mxPoint x="320" y="290" />
              <mxPoint x="320" y="430" />
            </Array>
          </mxGeometry>
        </mxCell>
        <mxCell id="vEnnmk01EU4P09wJa9QG-15" style="edgeStyle=orthogonalEdgeStyle;rounded=0;orthogonalLoop=1;jettySize=auto;html=1;exitX=0;exitY=1;exitDx=0;exitDy=0;entryX=0;entryY=0.5;entryDx=0;entryDy=0;" edge="1" parent="1" source="vEnnmk01EU4P09wJa9QG-1" target="vEnnmk01EU4P09wJa9QG-7">
          <mxGeometry relative="1" as="geometry">
            <Array as="points">
              <mxPoint x="340" y="290" />
              <mxPoint x="320" y="290" />
              <mxPoint x="320" y="490" />
            </Array>
          </mxGeometry>
        </mxCell>
        <mxCell id="vEnnmk01EU4P09wJa9QG-16" style="edgeStyle=orthogonalEdgeStyle;rounded=0;orthogonalLoop=1;jettySize=auto;html=1;exitX=0;exitY=1;exitDx=0;exitDy=0;entryX=0;entryY=0.5;entryDx=0;entryDy=0;" edge="1" parent="1" source="vEnnmk01EU4P09wJa9QG-1" target="vEnnmk01EU4P09wJa9QG-8">
          <mxGeometry relative="1" as="geometry">
            <Array as="points">
              <mxPoint x="340" y="290" />
              <mxPoint x="320" y="290" />
              <mxPoint x="320" y="550" />
            </Array>
          </mxGeometry>
        </mxCell>
        <mxCell id="vEnnmk01EU4P09wJa9QG-44" style="edgeStyle=orthogonalEdgeStyle;rounded=0;orthogonalLoop=1;jettySize=auto;html=1;exitX=0;exitY=0.5;exitDx=0;exitDy=0;entryX=1;entryY=0.5;entryDx=0;entryDy=0;endArrow=none;endFill=0;startArrow=ERmany;startFill=0;" edge="1" parent="1" source="vEnnmk01EU4P09wJa9QG-1" target="vEnnmk01EU4P09wJa9QG-42">
          <mxGeometry relative="1" as="geometry" />
        </mxCell>
        <mxCell id="vEnnmk01EU4P09wJa9QG-47" value="" style="edgeStyle=orthogonalEdgeStyle;rounded=0;orthogonalLoop=1;jettySize=auto;html=1;endArrow=none;endFill=0;startArrow=ERmany;startFill=0;" edge="1" parent="1" source="vEnnmk01EU4P09wJa9QG-1" target="vEnnmk01EU4P09wJa9QG-46">
          <mxGeometry relative="1" as="geometry" />
        </mxCell>
        <mxCell id="vEnnmk01EU4P09wJa9QG-1" value="Books" style="whiteSpace=wrap;html=1;align=center;" vertex="1" parent="1">
          <mxGeometry x="340" y="230" width="100" height="40" as="geometry" />
        </mxCell>
        <mxCell id="vEnnmk01EU4P09wJa9QG-2" value="book_id" style="ellipse;whiteSpace=wrap;html=1;align=center;fontStyle=4;" vertex="1" parent="1">
          <mxGeometry x="340" y="290" width="100" height="40" as="geometry" />
        </mxCell>
        <mxCell id="vEnnmk01EU4P09wJa9QG-5" value="title" style="ellipse;whiteSpace=wrap;html=1;align=center;" vertex="1" parent="1">
          <mxGeometry x="340" y="350" width="100" height="40" as="geometry" />
        </mxCell>
        <mxCell id="vEnnmk01EU4P09wJa9QG-6" value="genre" style="ellipse;whiteSpace=wrap;html=1;align=center;" vertex="1" parent="1">
          <mxGeometry x="340" y="410" width="100" height="40" as="geometry" />
        </mxCell>
        <mxCell id="vEnnmk01EU4P09wJa9QG-7" value="author_id" style="ellipse;whiteSpace=wrap;html=1;align=center;" vertex="1" parent="1">
          <mxGeometry x="340" y="470" width="100" height="40" as="geometry" />
        </mxCell>
        <mxCell id="vEnnmk01EU4P09wJa9QG-8" value="publish_year" style="ellipse;whiteSpace=wrap;html=1;align=center;" vertex="1" parent="1">
          <mxGeometry x="340" y="530" width="100" height="40" as="geometry" />
        </mxCell>
        <mxCell id="vEnnmk01EU4P09wJa9QG-17" style="edgeStyle=orthogonalEdgeStyle;rounded=0;orthogonalLoop=1;jettySize=auto;html=1;exitX=0;exitY=1;exitDx=0;exitDy=0;entryX=0;entryY=0.5;entryDx=0;entryDy=0;" edge="1" parent="1" target="vEnnmk01EU4P09wJa9QG-23">
          <mxGeometry relative="1" as="geometry">
            <mxPoint x="90" y="270" as="sourcePoint" />
          </mxGeometry>
        </mxCell>
        <mxCell id="vEnnmk01EU4P09wJa9QG-18" style="edgeStyle=orthogonalEdgeStyle;rounded=0;orthogonalLoop=1;jettySize=auto;html=1;exitX=0;exitY=1;exitDx=0;exitDy=0;entryX=0;entryY=0.5;entryDx=0;entryDy=0;" edge="1" parent="1" target="vEnnmk01EU4P09wJa9QG-24">
          <mxGeometry relative="1" as="geometry">
            <Array as="points">
              <mxPoint x="90" y="290" />
              <mxPoint x="70" y="290" />
              <mxPoint x="70" y="370" />
            </Array>
            <mxPoint x="90" y="270" as="sourcePoint" />
          </mxGeometry>
        </mxCell>
        <mxCell id="vEnnmk01EU4P09wJa9QG-19" style="edgeStyle=orthogonalEdgeStyle;rounded=0;orthogonalLoop=1;jettySize=auto;html=1;exitX=0;exitY=1;exitDx=0;exitDy=0;entryX=0;entryY=0.5;entryDx=0;entryDy=0;" edge="1" parent="1" target="vEnnmk01EU4P09wJa9QG-25">
          <mxGeometry relative="1" as="geometry">
            <Array as="points">
              <mxPoint x="90" y="290" />
              <mxPoint x="70" y="290" />
              <mxPoint x="70" y="430" />
            </Array>
            <mxPoint x="90" y="270" as="sourcePoint" />
          </mxGeometry>
        </mxCell>
        <mxCell id="vEnnmk01EU4P09wJa9QG-20" style="edgeStyle=orthogonalEdgeStyle;rounded=0;orthogonalLoop=1;jettySize=auto;html=1;exitX=0;exitY=1;exitDx=0;exitDy=0;entryX=0;entryY=0.5;entryDx=0;entryDy=0;" edge="1" parent="1" target="vEnnmk01EU4P09wJa9QG-26">
          <mxGeometry relative="1" as="geometry">
            <Array as="points">
              <mxPoint x="90" y="290" />
              <mxPoint x="70" y="290" />
              <mxPoint x="70" y="490" />
            </Array>
            <mxPoint x="90" y="270" as="sourcePoint" />
          </mxGeometry>
        </mxCell>
        <mxCell id="vEnnmk01EU4P09wJa9QG-21" style="edgeStyle=orthogonalEdgeStyle;rounded=0;orthogonalLoop=1;jettySize=auto;html=1;exitX=0;exitY=1;exitDx=0;exitDy=0;entryX=0;entryY=0.5;entryDx=0;entryDy=0;" edge="1" parent="1" target="vEnnmk01EU4P09wJa9QG-27">
          <mxGeometry relative="1" as="geometry">
            <Array as="points">
              <mxPoint x="90" y="290" />
              <mxPoint x="70" y="290" />
              <mxPoint x="70" y="550" />
            </Array>
            <mxPoint x="90" y="270" as="sourcePoint" />
          </mxGeometry>
        </mxCell>
        <mxCell id="vEnnmk01EU4P09wJa9QG-23" value="author_id" style="ellipse;whiteSpace=wrap;html=1;align=center;fontStyle=4;" vertex="1" parent="1">
          <mxGeometry x="90" y="290" width="100" height="40" as="geometry" />
        </mxCell>
        <mxCell id="vEnnmk01EU4P09wJa9QG-24" value="first_name" style="ellipse;whiteSpace=wrap;html=1;align=center;" vertex="1" parent="1">
          <mxGeometry x="90" y="350" width="100" height="40" as="geometry" />
        </mxCell>
        <mxCell id="vEnnmk01EU4P09wJa9QG-25" value="last_name" style="ellipse;whiteSpace=wrap;html=1;align=center;" vertex="1" parent="1">
          <mxGeometry x="90" y="410" width="100" height="40" as="geometry" />
        </mxCell>
        <mxCell id="vEnnmk01EU4P09wJa9QG-26" value="pseudonym" style="ellipse;whiteSpace=wrap;html=1;align=center;" vertex="1" parent="1">
          <mxGeometry x="90" y="470" width="100" height="40" as="geometry" />
        </mxCell>
        <mxCell id="vEnnmk01EU4P09wJa9QG-27" value="birthday" style="ellipse;whiteSpace=wrap;html=1;align=center;" vertex="1" parent="1">
          <mxGeometry x="90" y="530" width="100" height="40" as="geometry" />
        </mxCell>
        <mxCell id="vEnnmk01EU4P09wJa9QG-28" style="edgeStyle=orthogonalEdgeStyle;rounded=0;orthogonalLoop=1;jettySize=auto;html=1;exitX=0;exitY=1;exitDx=0;exitDy=0;entryX=0;entryY=0.5;entryDx=0;entryDy=0;" edge="1" parent="1" target="vEnnmk01EU4P09wJa9QG-34">
          <mxGeometry relative="1" as="geometry">
            <mxPoint x="590" y="270" as="sourcePoint" />
          </mxGeometry>
        </mxCell>
        <mxCell id="vEnnmk01EU4P09wJa9QG-29" style="edgeStyle=orthogonalEdgeStyle;rounded=0;orthogonalLoop=1;jettySize=auto;html=1;exitX=0;exitY=1;exitDx=0;exitDy=0;entryX=0;entryY=0.5;entryDx=0;entryDy=0;" edge="1" parent="1" target="vEnnmk01EU4P09wJa9QG-35">
          <mxGeometry relative="1" as="geometry">
            <Array as="points">
              <mxPoint x="590" y="290" />
              <mxPoint x="570" y="290" />
              <mxPoint x="570" y="370" />
            </Array>
            <mxPoint x="590" y="270" as="sourcePoint" />
          </mxGeometry>
        </mxCell>
        <mxCell id="vEnnmk01EU4P09wJa9QG-30" style="edgeStyle=orthogonalEdgeStyle;rounded=0;orthogonalLoop=1;jettySize=auto;html=1;exitX=0;exitY=1;exitDx=0;exitDy=0;entryX=0;entryY=0.5;entryDx=0;entryDy=0;" edge="1" parent="1" target="vEnnmk01EU4P09wJa9QG-36">
          <mxGeometry relative="1" as="geometry">
            <Array as="points">
              <mxPoint x="590" y="290" />
              <mxPoint x="570" y="290" />
              <mxPoint x="570" y="430" />
            </Array>
            <mxPoint x="590" y="270" as="sourcePoint" />
          </mxGeometry>
        </mxCell>
        <mxCell id="vEnnmk01EU4P09wJa9QG-31" style="edgeStyle=orthogonalEdgeStyle;rounded=0;orthogonalLoop=1;jettySize=auto;html=1;exitX=0;exitY=1;exitDx=0;exitDy=0;entryX=0;entryY=0.5;entryDx=0;entryDy=0;" edge="1" parent="1" target="vEnnmk01EU4P09wJa9QG-37">
          <mxGeometry relative="1" as="geometry">
            <Array as="points">
              <mxPoint x="590" y="290" />
              <mxPoint x="570" y="290" />
              <mxPoint x="570" y="490" />
            </Array>
            <mxPoint x="590" y="270" as="sourcePoint" />
          </mxGeometry>
        </mxCell>
        <mxCell id="vEnnmk01EU4P09wJa9QG-32" style="edgeStyle=orthogonalEdgeStyle;rounded=0;orthogonalLoop=1;jettySize=auto;html=1;exitX=0;exitY=1;exitDx=0;exitDy=0;entryX=0;entryY=0.5;entryDx=0;entryDy=0;" edge="1" parent="1" target="vEnnmk01EU4P09wJa9QG-38">
          <mxGeometry relative="1" as="geometry">
            <Array as="points">
              <mxPoint x="590" y="290" />
              <mxPoint x="570" y="290" />
              <mxPoint x="570" y="550" />
            </Array>
            <mxPoint x="590" y="270" as="sourcePoint" />
          </mxGeometry>
        </mxCell>
        <mxCell id="vEnnmk01EU4P09wJa9QG-34" value="reader_id" style="ellipse;whiteSpace=wrap;html=1;align=center;fontStyle=4;" vertex="1" parent="1">
          <mxGeometry x="590" y="290" width="100" height="40" as="geometry" />
        </mxCell>
        <mxCell id="vEnnmk01EU4P09wJa9QG-35" value="first_name" style="ellipse;whiteSpace=wrap;html=1;align=center;" vertex="1" parent="1">
          <mxGeometry x="590" y="350" width="100" height="40" as="geometry" />
        </mxCell>
        <mxCell id="vEnnmk01EU4P09wJa9QG-36" value="last_name" style="ellipse;whiteSpace=wrap;html=1;align=center;" vertex="1" parent="1">
          <mxGeometry x="590" y="410" width="100" height="40" as="geometry" />
        </mxCell>
        <mxCell id="vEnnmk01EU4P09wJa9QG-37" value="email" style="ellipse;whiteSpace=wrap;html=1;align=center;" vertex="1" parent="1">
          <mxGeometry x="590" y="470" width="100" height="40" as="geometry" />
        </mxCell>
        <mxCell id="vEnnmk01EU4P09wJa9QG-38" value="registration_date" style="ellipse;whiteSpace=wrap;html=1;align=center;" vertex="1" parent="1">
          <mxGeometry x="590" y="530" width="100" height="40" as="geometry" />
        </mxCell>
        <mxCell id="vEnnmk01EU4P09wJa9QG-43" value="" style="edgeStyle=orthogonalEdgeStyle;rounded=0;orthogonalLoop=1;jettySize=auto;html=1;endArrow=none;endFill=0;" edge="1" parent="1" target="vEnnmk01EU4P09wJa9QG-42">
          <mxGeometry relative="1" as="geometry">
            <mxPoint x="190" y="250" as="sourcePoint" />
          </mxGeometry>
        </mxCell>
        <mxCell id="vEnnmk01EU4P09wJa9QG-48" style="edgeStyle=orthogonalEdgeStyle;rounded=0;orthogonalLoop=1;jettySize=auto;html=1;exitX=0;exitY=0.5;exitDx=0;exitDy=0;endArrow=none;endFill=0;startArrow=ERmany;startFill=0;" edge="1" parent="1" target="vEnnmk01EU4P09wJa9QG-46">
          <mxGeometry relative="1" as="geometry">
            <mxPoint x="590" y="250" as="sourcePoint" />
          </mxGeometry>
        </mxCell>
        <mxCell id="vEnnmk01EU4P09wJa9QG-42" value="write" style="rhombus;whiteSpace=wrap;html=1;rounded=1;arcSize=0;" vertex="1" parent="1">
          <mxGeometry x="220" y="210" width="80" height="80" as="geometry" />
        </mxCell>
        <mxCell id="vEnnmk01EU4P09wJa9QG-46" value="rental" style="rhombus;whiteSpace=wrap;html=1;" vertex="1" parent="1">
          <mxGeometry x="470" y="210" width="80" height="80" as="geometry" />
        </mxCell>
        <mxCell id="vEnnmk01EU4P09wJa9QG-49" style="edgeStyle=orthogonalEdgeStyle;rounded=0;orthogonalLoop=1;jettySize=auto;html=1;exitX=0;exitY=1;exitDx=0;exitDy=0;entryX=0;entryY=0.5;entryDx=0;entryDy=0;" edge="1" parent="1" target="vEnnmk01EU4P09wJa9QG-54">
          <mxGeometry relative="1" as="geometry">
            <mxPoint x="340" y="660" as="sourcePoint" />
          </mxGeometry>
        </mxCell>
        <mxCell id="vEnnmk01EU4P09wJa9QG-50" style="edgeStyle=orthogonalEdgeStyle;rounded=0;orthogonalLoop=1;jettySize=auto;html=1;exitX=0;exitY=1;exitDx=0;exitDy=0;entryX=0;entryY=0.5;entryDx=0;entryDy=0;" edge="1" parent="1" target="vEnnmk01EU4P09wJa9QG-55">
          <mxGeometry relative="1" as="geometry">
            <Array as="points">
              <mxPoint x="340" y="680" />
              <mxPoint x="320" y="680" />
              <mxPoint x="320" y="760" />
            </Array>
            <mxPoint x="340" y="660" as="sourcePoint" />
          </mxGeometry>
        </mxCell>
        <mxCell id="vEnnmk01EU4P09wJa9QG-51" style="edgeStyle=orthogonalEdgeStyle;rounded=0;orthogonalLoop=1;jettySize=auto;html=1;exitX=0;exitY=1;exitDx=0;exitDy=0;entryX=0;entryY=0.5;entryDx=0;entryDy=0;" edge="1" parent="1" target="vEnnmk01EU4P09wJa9QG-56">
          <mxGeometry relative="1" as="geometry">
            <Array as="points">
              <mxPoint x="340" y="680" />
              <mxPoint x="320" y="680" />
              <mxPoint x="320" y="820" />
            </Array>
            <mxPoint x="340" y="660" as="sourcePoint" />
          </mxGeometry>
        </mxCell>
        <mxCell id="vEnnmk01EU4P09wJa9QG-52" style="edgeStyle=orthogonalEdgeStyle;rounded=0;orthogonalLoop=1;jettySize=auto;html=1;exitX=0;exitY=1;exitDx=0;exitDy=0;entryX=0;entryY=0.5;entryDx=0;entryDy=0;" edge="1" parent="1" target="vEnnmk01EU4P09wJa9QG-57">
          <mxGeometry relative="1" as="geometry">
            <Array as="points">
              <mxPoint x="340" y="680" />
              <mxPoint x="320" y="680" />
              <mxPoint x="320" y="880" />
            </Array>
            <mxPoint x="340" y="660" as="sourcePoint" />
          </mxGeometry>
        </mxCell>
        <mxCell id="vEnnmk01EU4P09wJa9QG-53" style="edgeStyle=orthogonalEdgeStyle;rounded=0;orthogonalLoop=1;jettySize=auto;html=1;exitX=0;exitY=1;exitDx=0;exitDy=0;entryX=0;entryY=0.5;entryDx=0;entryDy=0;" edge="1" parent="1" target="vEnnmk01EU4P09wJa9QG-58">
          <mxGeometry relative="1" as="geometry">
            <Array as="points">
              <mxPoint x="340" y="680" />
              <mxPoint x="320" y="680" />
              <mxPoint x="320" y="940" />
            </Array>
            <mxPoint x="340" y="660" as="sourcePoint" />
          </mxGeometry>
        </mxCell>
        <mxCell id="vEnnmk01EU4P09wJa9QG-54" value="rental_id" style="ellipse;whiteSpace=wrap;html=1;align=center;fontStyle=4;" vertex="1" parent="1">
          <mxGeometry x="340" y="680" width="100" height="40" as="geometry" />
        </mxCell>
        <mxCell id="vEnnmk01EU4P09wJa9QG-55" value="book_id" style="ellipse;whiteSpace=wrap;html=1;align=center;" vertex="1" parent="1">
          <mxGeometry x="340" y="740" width="100" height="40" as="geometry" />
        </mxCell>
        <mxCell id="vEnnmk01EU4P09wJa9QG-56" value="author_id" style="ellipse;whiteSpace=wrap;html=1;align=center;" vertex="1" parent="1">
          <mxGeometry x="340" y="800" width="100" height="40" as="geometry" />
        </mxCell>
        <mxCell id="vEnnmk01EU4P09wJa9QG-57" value="reader_id" style="ellipse;whiteSpace=wrap;html=1;align=center;" vertex="1" parent="1">
          <mxGeometry x="340" y="860" width="100" height="40" as="geometry" />
        </mxCell>
        <mxCell id="vEnnmk01EU4P09wJa9QG-58" value="take_date" style="ellipse;whiteSpace=wrap;html=1;align=center;" vertex="1" parent="1">
          <mxGeometry x="340" y="920" width="100" height="40" as="geometry" />
        </mxCell>
        <mxCell id="vEnnmk01EU4P09wJa9QG-61" style="edgeStyle=orthogonalEdgeStyle;rounded=0;orthogonalLoop=1;jettySize=auto;html=1;exitX=0;exitY=1;exitDx=0;exitDy=0;entryX=0;entryY=0.5;entryDx=0;entryDy=0;" edge="1" parent="1" target="vEnnmk01EU4P09wJa9QG-60">
          <mxGeometry relative="1" as="geometry">
            <mxPoint x="340" y="660" as="sourcePoint" />
            <Array as="points">
              <mxPoint x="340" y="680" />
              <mxPoint x="320" y="680" />
              <mxPoint x="320" y="1000" />
            </Array>
          </mxGeometry>
        </mxCell>
        <mxCell id="vEnnmk01EU4P09wJa9QG-60" value="return_date" style="ellipse;whiteSpace=wrap;html=1;align=center;" vertex="1" parent="1">
          <mxGeometry x="340" y="980" width="100" height="40" as="geometry" />
        </mxCell>
        <mxCell id="vEnnmk01EU4P09wJa9QG-66" value="Authors" style="shape=ext;margin=3;double=1;whiteSpace=wrap;html=1;align=center;" vertex="1" parent="1">
          <mxGeometry x="90" y="230" width="100" height="40" as="geometry" />
        </mxCell>
        <mxCell id="vEnnmk01EU4P09wJa9QG-67" value="Readers" style="shape=ext;margin=3;double=1;whiteSpace=wrap;html=1;align=center;" vertex="1" parent="1">
          <mxGeometry x="590" y="230" width="100" height="40" as="geometry" />
        </mxCell>
        <mxCell id="vEnnmk01EU4P09wJa9QG-70" value="" style="endArrow=none;html=1;rounded=0;entryX=0.5;entryY=1;entryDx=0;entryDy=0;" edge="1" parent="1" target="vEnnmk01EU4P09wJa9QG-46">
          <mxGeometry width="50" height="50" relative="1" as="geometry">
            <mxPoint x="340" y="660" as="sourcePoint" />
            <mxPoint x="470" y="590" as="targetPoint" />
            <Array as="points">
              <mxPoint x="340" y="640" />
              <mxPoint x="510" y="640" />
            </Array>
          </mxGeometry>
        </mxCell>
      </root>
    </mxGraphModel>
  </diagram>
</mxfile>
